<mxfile host="app.diagrams.net" modified="2024-05-07T17:35:30.581Z" agent="Mozilla/5.0 (Windows NT 10.0; Win64; x64) AppleWebKit/537.36 (KHTML, like Gecko) Chrome/124.0.0.0 Safari/537.36" etag="gMjDQfNP5F268mdVF7t-" version="24.3.1" type="github">
  <diagram name="第 1 页" id="ER4B38WYSKBLtnJiFvXb">
    <mxGraphModel dx="1180" dy="414" grid="0" gridSize="10" guides="1" tooltips="1" connect="1" arrows="1" fold="1" page="0" pageScale="1" pageWidth="1200" pageHeight="1600" math="0" shadow="0">
      <root>
        <mxCell id="0" />
        <mxCell id="1" parent="0" />
        <mxCell id="qDIQ0mZrcQNdC_9UIp8F-1" value="Client" style="html=1;whiteSpace=wrap;" vertex="1" parent="1">
          <mxGeometry x="-46" y="123" width="110" height="50" as="geometry" />
        </mxCell>
        <mxCell id="qDIQ0mZrcQNdC_9UIp8F-2" value="&lt;i&gt;WeatherService&lt;/i&gt;" style="swimlane;fontStyle=1;align=center;verticalAlign=top;childLayout=stackLayout;horizontal=1;startSize=26;horizontalStack=0;resizeParent=1;resizeParentMax=0;resizeLast=0;collapsible=1;marginBottom=0;whiteSpace=wrap;html=1;" vertex="1" parent="1">
          <mxGeometry x="271" y="118" width="148" height="60" as="geometry" />
        </mxCell>
        <mxCell id="qDIQ0mZrcQNdC_9UIp8F-3" value="" style="line;strokeWidth=1;fillColor=none;align=left;verticalAlign=middle;spacingTop=-1;spacingLeft=3;spacingRight=3;rotatable=0;labelPosition=right;points=[];portConstraint=eastwest;strokeColor=inherit;" vertex="1" parent="qDIQ0mZrcQNdC_9UIp8F-2">
          <mxGeometry y="26" width="148" height="8" as="geometry" />
        </mxCell>
        <mxCell id="qDIQ0mZrcQNdC_9UIp8F-4" value="&lt;i&gt;fetchWeather()&lt;/i&gt;" style="text;strokeColor=none;fillColor=none;align=left;verticalAlign=top;spacingLeft=4;spacingRight=4;overflow=hidden;rotatable=0;points=[[0,0.5],[1,0.5]];portConstraint=eastwest;whiteSpace=wrap;html=1;" vertex="1" parent="qDIQ0mZrcQNdC_9UIp8F-2">
          <mxGeometry y="34" width="148" height="26" as="geometry" />
        </mxCell>
        <mxCell id="qDIQ0mZrcQNdC_9UIp8F-5" value="RealWeatherService" style="swimlane;fontStyle=1;align=center;verticalAlign=top;childLayout=stackLayout;horizontal=1;startSize=26;horizontalStack=0;resizeParent=1;resizeParentMax=0;resizeLast=0;collapsible=1;marginBottom=0;whiteSpace=wrap;html=1;" vertex="1" parent="1">
          <mxGeometry x="80" y="272" width="171" height="60" as="geometry" />
        </mxCell>
        <mxCell id="qDIQ0mZrcQNdC_9UIp8F-6" value="" style="line;strokeWidth=1;fillColor=none;align=left;verticalAlign=middle;spacingTop=-1;spacingLeft=3;spacingRight=3;rotatable=0;labelPosition=right;points=[];portConstraint=eastwest;strokeColor=inherit;" vertex="1" parent="qDIQ0mZrcQNdC_9UIp8F-5">
          <mxGeometry y="26" width="171" height="8" as="geometry" />
        </mxCell>
        <mxCell id="qDIQ0mZrcQNdC_9UIp8F-7" value="fetchWeather()" style="text;strokeColor=none;fillColor=none;align=left;verticalAlign=top;spacingLeft=4;spacingRight=4;overflow=hidden;rotatable=0;points=[[0,0.5],[1,0.5]];portConstraint=eastwest;whiteSpace=wrap;html=1;" vertex="1" parent="qDIQ0mZrcQNdC_9UIp8F-5">
          <mxGeometry y="34" width="171" height="26" as="geometry" />
        </mxCell>
        <mxCell id="qDIQ0mZrcQNdC_9UIp8F-8" value="DummyWeatherService" style="swimlane;fontStyle=1;align=center;verticalAlign=top;childLayout=stackLayout;horizontal=1;startSize=26;horizontalStack=0;resizeParent=1;resizeParentMax=0;resizeLast=0;collapsible=1;marginBottom=0;whiteSpace=wrap;html=1;" vertex="1" parent="1">
          <mxGeometry x="416" y="272" width="173" height="60" as="geometry" />
        </mxCell>
        <mxCell id="qDIQ0mZrcQNdC_9UIp8F-9" value="" style="line;strokeWidth=1;fillColor=none;align=left;verticalAlign=middle;spacingTop=-1;spacingLeft=3;spacingRight=3;rotatable=0;labelPosition=right;points=[];portConstraint=eastwest;strokeColor=inherit;" vertex="1" parent="qDIQ0mZrcQNdC_9UIp8F-8">
          <mxGeometry y="26" width="173" height="8" as="geometry" />
        </mxCell>
        <mxCell id="qDIQ0mZrcQNdC_9UIp8F-10" value="fetchWeather()" style="text;strokeColor=none;fillColor=none;align=left;verticalAlign=top;spacingLeft=4;spacingRight=4;overflow=hidden;rotatable=0;points=[[0,0.5],[1,0.5]];portConstraint=eastwest;whiteSpace=wrap;html=1;" vertex="1" parent="qDIQ0mZrcQNdC_9UIp8F-8">
          <mxGeometry y="34" width="173" height="26" as="geometry" />
        </mxCell>
        <mxCell id="qDIQ0mZrcQNdC_9UIp8F-11" value="" style="endArrow=open;endFill=1;endSize=12;html=1;rounded=0;fontSize=12;curved=1;entryX=0.007;entryY=0.5;entryDx=0;entryDy=0;entryPerimeter=0;exitX=1;exitY=0.5;exitDx=0;exitDy=0;" edge="1" parent="1" source="qDIQ0mZrcQNdC_9UIp8F-1" target="qDIQ0mZrcQNdC_9UIp8F-3">
          <mxGeometry width="160" relative="1" as="geometry">
            <mxPoint x="-92" y="238" as="sourcePoint" />
            <mxPoint x="68" y="238" as="targetPoint" />
          </mxGeometry>
        </mxCell>
        <mxCell id="qDIQ0mZrcQNdC_9UIp8F-12" value="" style="endArrow=block;endSize=16;endFill=0;html=1;rounded=0;fontSize=12;entryX=0.523;entryY=1.077;entryDx=0;entryDy=0;entryPerimeter=0;edgeStyle=elbowEdgeStyle;elbow=vertical;exitX=0.5;exitY=0;exitDx=0;exitDy=0;" edge="1" parent="1" source="qDIQ0mZrcQNdC_9UIp8F-8">
          <mxGeometry x="-0.1375" y="102" width="160" relative="1" as="geometry">
            <mxPoint x="483" y="268" as="sourcePoint" />
            <mxPoint x="345.404" y="180.002" as="targetPoint" />
            <Array as="points">
              <mxPoint x="381" y="248" />
            </Array>
            <mxPoint as="offset" />
          </mxGeometry>
        </mxCell>
        <mxCell id="qDIQ0mZrcQNdC_9UIp8F-13" value="" style="endArrow=none;html=1;rounded=0;fontSize=12;startSize=8;endSize=8;exitX=0.5;exitY=0;exitDx=0;exitDy=0;edgeStyle=elbowEdgeStyle;elbow=vertical;" edge="1" parent="1">
          <mxGeometry width="50" height="50" relative="1" as="geometry">
            <mxPoint x="164" y="272" as="sourcePoint" />
            <mxPoint x="345.5" y="224" as="targetPoint" />
          </mxGeometry>
        </mxCell>
        <mxCell id="qDIQ0mZrcQNdC_9UIp8F-14" value="&lt;font style=&quot;font-size: 22px;&quot;&gt;Service Stub&lt;/font&gt;" style="text;html=1;align=center;verticalAlign=middle;resizable=0;points=[];autosize=1;strokeColor=none;fillColor=none;fontSize=16;" vertex="1" parent="1">
          <mxGeometry x="254" y="44" width="143" height="38" as="geometry" />
        </mxCell>
      </root>
    </mxGraphModel>
  </diagram>
</mxfile>
